<svg width="225" height="48" viewBox="0 0 225 48" fill="none" xmlns="http://www.w3.org/2000/svg">
<path opacity="0.5" d="M51.9118 2.22009L40.6194 42.8225C40.562 43.0068 40.3323 43.0621 40.1983 42.9331L32.6382 35.6531L38.3035 15.3058C38.3609 15.1215 38.1887 14.9556 37.9973 15.0109L16.8671 20.4663L9.34517 13.2231C9.2112 13.0941 9.26861 12.8729 9.46001 12.8176L51.6056 1.9252C51.797 1.88834 51.9693 2.05422 51.9118 2.22009Z" fill="#00B37E"/>
<path opacity="0.5" d="M32.6378 35.6527L29.7286 46.1581C29.6712 46.3424 29.4415 46.3977 29.3075 46.2686L5.84224 23.6913C5.70827 23.5622 5.76568 23.3411 5.95708 23.2858L16.8667 20.4659L32.6378 35.6527Z" fill="#00B37E"/>
<path d="M38.3026 15.3054L32.6373 35.6527L16.8661 20.4659L37.9964 15.0105C38.1878 14.9552 38.36 15.121 38.3026 15.3054Z" fill="#00B37E"/>
<path d="M76.4964 36.1083H71.3438L71.3763 32.3109H76.4964C77.7751 32.3109 78.8533 32.0242 79.731 31.4508C80.6087 30.8666 81.2697 30.0173 81.714 28.903C82.1691 27.7886 82.3967 26.4417 82.3967 24.8621V23.7099C82.3967 22.4982 82.2667 21.4326 82.0066 20.513C81.7574 19.5934 81.3835 18.8198 80.885 18.1923C80.3866 17.5649 79.7743 17.0942 79.0483 16.7805C78.3223 16.4559 77.4879 16.2936 76.5452 16.2936H71.2463V12.48H76.5452C78.1273 12.48 79.5739 12.7505 80.885 13.2914C82.2071 13.8215 83.3503 14.5843 84.3147 15.5796C85.2791 16.5749 86.0214 17.765 86.5415 19.1498C87.0725 20.5238 87.338 22.0547 87.338 23.7424V24.8621C87.338 26.5391 87.0725 28.0699 86.5415 29.4547C86.0214 30.8395 85.2791 32.0296 84.3147 33.0249C83.3611 34.0094 82.2179 34.7722 80.885 35.3131C79.563 35.8432 78.1002 36.1083 76.4964 36.1083ZM74.107 12.48V36.1083H69.2308V12.48H74.107Z" fill="#E1E1E6"/>
<path d="M100.358 12.48V36.1083H95.4976V12.48H100.358ZM107.639 12.48V16.2936H88.3295V12.48H107.639Z" fill="#E1E1E6"/>
<path d="M120.058 12.48H124.186L130.265 29.828L136.344 12.48H140.473L131.923 36.1083H128.607L120.058 12.48ZM117.831 12.48H121.943L122.691 29.3898V36.1083H117.831V12.48ZM138.588 12.48H142.716V36.1083H137.84V29.3898L138.588 12.48Z" fill="#E1E1E6"/>
<path d="M145.951 27.5073V27.1665C145.951 25.8791 146.135 24.6944 146.503 23.6126C146.872 22.5199 147.408 21.5732 148.113 20.7726C148.817 19.972 149.684 19.35 150.713 18.9064C151.743 18.452 152.924 18.2248 154.257 18.2248C155.589 18.2248 156.776 18.452 157.816 18.9064C158.857 19.35 159.729 19.972 160.433 20.7726C161.148 21.5732 161.69 22.5199 162.059 23.6126C162.427 24.6944 162.611 25.8791 162.611 27.1665V27.5073C162.611 28.784 162.427 29.9686 162.059 31.0613C161.69 32.1432 161.148 33.0898 160.433 33.9013C159.729 34.7018 158.862 35.3239 157.833 35.7675C156.803 36.2111 155.622 36.4329 154.289 36.4329C152.956 36.4329 151.77 36.2111 150.729 35.7675C149.7 35.3239 148.828 34.7018 148.113 33.9013C147.408 33.0898 146.872 32.1432 146.503 31.0613C146.135 29.9686 145.951 28.784 145.951 27.5073ZM150.632 27.1665V27.5073C150.632 28.243 150.697 28.93 150.827 29.5683C150.957 30.2066 151.163 30.7692 151.445 31.2561C151.737 31.7321 152.116 32.1053 152.582 32.3758C153.048 32.6463 153.617 32.7815 154.289 32.7815C154.939 32.7815 155.497 32.6463 155.963 32.3758C156.429 32.1053 156.803 31.7321 157.085 31.2561C157.367 30.7692 157.572 30.2066 157.702 29.5683C157.843 28.93 157.914 28.243 157.914 27.5073V27.1665C157.914 26.4525 157.843 25.7817 157.702 25.1542C157.572 24.5159 157.361 23.9534 157.069 23.4665C156.787 22.9688 156.413 22.5794 155.947 22.2981C155.481 22.0168 154.918 21.8761 154.257 21.8761C153.596 21.8761 153.032 22.0168 152.566 22.2981C152.111 22.5794 151.737 22.9688 151.445 23.4665C151.163 23.9534 150.957 24.5159 150.827 25.1542C150.697 25.7817 150.632 26.4525 150.632 27.1665Z" fill="#E1E1E6"/>
<path d="M170.072 22.2981V36.1083H165.391V18.5494H169.779L170.072 22.2981ZM169.389 26.7122H168.121C168.121 25.4139 168.289 24.2455 168.625 23.2069C168.961 22.1574 169.433 21.2649 170.039 20.5292C170.646 19.7827 171.367 19.2147 172.201 18.8252C173.046 18.4249 173.989 18.2248 175.029 18.2248C175.853 18.2248 176.606 18.3438 177.289 18.5818C177.972 18.8198 178.557 19.1985 179.044 19.7178C179.543 20.2371 179.922 20.9241 180.182 21.7788C180.453 22.6335 180.588 23.6775 180.588 24.9108V36.1083H175.875V24.8946C175.875 24.1156 175.766 23.5098 175.55 23.077C175.333 22.6443 175.013 22.3414 174.591 22.1683C174.179 21.9843 173.67 21.8924 173.063 21.8924C172.434 21.8924 171.887 22.0168 171.421 22.2656C170.966 22.5145 170.587 22.8607 170.283 23.3042C169.991 23.737 169.769 24.2455 169.617 24.8297C169.465 25.4139 169.389 26.0414 169.389 26.7122Z" fill="#E1E1E6"/>
<path d="M192.243 36.4329C190.877 36.4329 189.653 36.2165 188.569 35.7837C187.486 35.3402 186.565 34.7289 185.806 33.9499C185.058 33.171 184.484 32.2676 184.083 31.2398C183.682 30.2012 183.482 29.0977 183.482 27.9293V27.2801C183.482 25.9494 183.671 24.7323 184.051 23.6288C184.43 22.5253 184.972 21.5678 185.676 20.7564C186.391 19.945 187.258 19.3229 188.277 18.8902C189.295 18.4466 190.444 18.2248 191.723 18.2248C192.969 18.2248 194.074 18.4304 195.038 18.8415C196.003 19.2526 196.81 19.8368 197.46 20.5941C198.121 21.3514 198.62 22.2602 198.956 23.3205C199.292 24.3699 199.46 25.5383 199.46 26.8258V28.7731H185.481V25.6573H194.86V25.3003C194.86 24.6512 194.74 24.0724 194.502 23.5639C194.274 23.0446 193.928 22.6335 193.462 22.3305C192.996 22.0276 192.4 21.8761 191.674 21.8761C191.056 21.8761 190.525 22.0114 190.081 22.2819C189.637 22.5523 189.274 22.931 188.992 23.4178C188.721 23.9047 188.515 24.4781 188.374 25.138C188.244 25.7871 188.179 26.5012 188.179 27.2801V27.9293C188.179 28.6325 188.277 29.2816 188.472 29.8767C188.678 30.4717 188.965 30.9856 189.333 31.4183C189.712 31.8511 190.168 32.1865 190.699 32.4245C191.24 32.6625 191.853 32.7815 192.535 32.7815C193.381 32.7815 194.166 32.6192 194.892 32.2947C195.629 31.9593 196.263 31.4562 196.794 30.7854L199.069 33.2521C198.701 33.7822 198.197 34.2907 197.558 34.7776C196.929 35.2644 196.171 35.6647 195.282 35.9785C194.394 36.2814 193.381 36.4329 192.243 36.4329Z" fill="#E1E1E6"/>
<path d="M207.115 34.1284L211.78 18.5494H216.803L209.732 38.7535C209.581 39.1971 209.375 39.6731 209.115 40.1816C208.865 40.6901 208.524 41.1715 208.091 41.6259C207.668 42.0911 207.132 42.4697 206.481 42.7619C205.842 43.054 205.056 43.2 204.125 43.2C203.68 43.2 203.317 43.173 203.036 43.1189C202.754 43.0648 202.418 42.989 202.028 42.8917V39.4675C202.147 39.4675 202.272 39.4675 202.402 39.4675C202.532 39.4783 202.656 39.4838 202.775 39.4838C203.393 39.4838 203.897 39.4134 204.287 39.2728C204.677 39.1321 204.991 38.9158 205.23 38.6237C205.468 38.3424 205.658 37.9745 205.799 37.5201L207.115 34.1284ZM205.165 18.5494L208.985 31.2723L209.651 36.2219L206.465 36.5627L200.142 18.5494H205.165Z" fill="#E1E1E6"/>
</svg>
